<svg width="20" height="19" viewBox="0 0 20 19" fill="none" xmlns="http://www.w3.org/2000/svg">
<path fill-rule="evenodd" clip-rule="evenodd" d="M9.71984 0C4.33343 0 0 4.33343 0 9.71984C0 14.0128 2.79445 17.6577 6.64189 18.9537C7.12788 19.0347 7.28988 18.7512 7.28988 18.4677C7.28988 18.2247 7.28988 17.6172 7.28988 16.8072C4.57643 17.4147 4.00944 15.5113 4.00944 15.5113C3.56394 14.3773 2.91595 14.0938 2.91595 14.0938C2.02497 13.4863 2.99695 13.4863 2.99695 13.4863C3.96894 13.5673 4.49543 14.4988 4.49543 14.4988C5.34591 15.9972 6.76339 15.5518 7.33038 15.3088C7.41138 14.6608 7.65438 14.2558 7.93787 14.0128C5.79141 13.7698 3.52344 12.9193 3.52344 9.19335C3.52344 8.14037 3.88794 7.24938 4.53593 6.60139C4.45493 6.3584 4.09043 5.38641 4.61693 4.00944C4.61693 4.00944 5.42691 3.76644 7.28988 5.02192C8.05937 4.81942 8.90986 4.69792 9.71984 4.69792C10.5298 4.69792 11.3803 4.81942 12.1498 5.02192C14.0128 3.76644 14.8228 4.00944 14.8228 4.00944C15.3493 5.34591 15.0253 6.3179 14.9038 6.60139C15.5112 7.28988 15.9162 8.14037 15.9162 9.19335C15.9162 12.9193 13.6483 13.7293 11.4613 13.9723C11.8258 14.2558 12.1093 14.8633 12.1093 15.7542C12.1093 17.0502 12.1093 18.1032 12.1093 18.4272C12.1093 18.6702 12.2713 18.9942 12.7978 18.9132C16.6452 17.6577 19.4397 14.0128 19.4397 9.71984C19.4397 4.33343 15.1063 0 9.71984 0Z" fill="#2948FF"/>
</svg>
