<svg width="25" height="16" viewBox="0 0 25 16" fill="none" xmlns="http://www.w3.org/2000/svg">
<path d="M5.51724 6.62069C5.299 6.62069 5.08566 6.68541 4.9042 6.80665C4.72274 6.9279 4.58131 7.10024 4.49779 7.30187C4.41427 7.50349 4.39242 7.72536 4.435 7.93941C4.47757 8.15346 4.58267 8.35007 4.73699 8.50439C4.89131 8.65871 5.08792 8.76381 5.30197 8.80638C5.51602 8.84896 5.73788 8.82711 5.93951 8.74359C6.14114 8.66007 6.31348 8.51864 6.43473 8.33718C6.55597 8.15572 6.62069 7.94238 6.62069 7.72414C6.62069 7.43149 6.50443 7.15082 6.2975 6.94388C6.09056 6.73695 5.80989 6.62069 5.51724 6.62069ZM18.7586 6.62069C18.5404 6.62069 18.327 6.68541 18.1456 6.80665C17.9641 6.9279 17.8227 7.10024 17.7392 7.30187C17.6557 7.50349 17.6338 7.72536 17.6764 7.93941C17.719 8.15346 17.824 8.35007 17.9784 8.50439C18.1327 8.65871 18.3293 8.76381 18.5433 8.80638C18.7574 8.84896 18.9793 8.82711 19.1809 8.74359C19.3825 8.66007 19.5549 8.51864 19.6761 8.33718C19.7974 8.15572 19.8621 7.94238 19.8621 7.72414C19.8621 7.43149 19.7458 7.15082 19.5389 6.94388C19.3319 6.73695 19.0513 6.62069 18.7586 6.62069ZM20.9655 0H3.31035C2.43239 0 1.59039 0.348768 0.969578 0.969578C0.348767 1.59039 0 2.43239 0 3.31034V12.1379C0 13.0159 0.348767 13.8579 0.969578 14.4787C1.59039 15.0995 2.43239 15.4483 3.31035 15.4483H20.9655C21.8435 15.4483 22.6855 15.0995 23.3063 14.4787C23.9271 13.8579 24.2759 13.0159 24.2759 12.1379V3.31034C24.2759 2.43239 23.9271 1.59039 23.3063 0.969578C22.6855 0.348768 21.8435 0 20.9655 0ZM22.069 12.1379C22.069 12.4306 21.9527 12.7113 21.7458 12.9182C21.5388 13.1251 21.2582 13.2414 20.9655 13.2414H3.31035C3.01769 13.2414 2.73703 13.1251 2.53009 12.9182C2.32315 12.7113 2.2069 12.4306 2.2069 12.1379V3.31034C2.2069 3.01769 2.32315 2.73703 2.53009 2.53009C2.73703 2.32315 3.01769 2.2069 3.31035 2.2069H20.9655C21.2582 2.2069 21.5388 2.32315 21.7458 2.53009C21.9527 2.73703 22.069 3.01769 22.069 3.31034V12.1379ZM12.1379 4.41379C11.4832 4.41379 10.8432 4.60794 10.2988 4.97169C9.75442 5.33543 9.33012 5.85244 9.07957 6.45732C8.82902 7.06221 8.76346 7.72781 8.89119 8.36995C9.01892 9.0121 9.3342 9.60195 9.79716 10.0649C10.2601 10.5279 10.85 10.8431 11.4921 10.9709C12.1343 11.0986 12.7999 11.0331 13.4047 10.7825C14.0096 10.5319 14.5266 10.1077 14.8904 9.56327C15.2541 9.01888 15.4483 8.37886 15.4483 7.72414C15.4483 6.84618 15.0995 6.00418 14.4787 5.38337C13.8579 4.76256 13.0159 4.41379 12.1379 4.41379ZM12.1379 8.82759C11.9197 8.82759 11.7063 8.76287 11.5249 8.64162C11.3434 8.52037 11.202 8.34804 11.1185 8.14641C11.035 7.94478 11.0131 7.72291 11.0557 7.50887C11.0983 7.29482 11.2034 7.0982 11.3577 6.94388C11.512 6.78956 11.7086 6.68447 11.9227 6.64189C12.1367 6.59932 12.3586 6.62117 12.5602 6.70468C12.7618 6.7882 12.9342 6.92963 13.0554 7.11109C13.1767 7.29256 13.2414 7.5059 13.2414 7.72414C13.2414 8.01679 13.1251 8.29746 12.9182 8.50439C12.7113 8.71133 12.4306 8.82759 12.1379 8.82759Z" fill="#2948FF"/>
</svg>
