<svg width="21" height="21" viewBox="0 0 21 21" fill="none" xmlns="http://www.w3.org/2000/svg">
<path d="M10.1613 1.83097C12.8744 1.83097 13.1956 1.84113 14.2674 1.89C14.9118 1.89789 15.5501 2.01621 16.1545 2.23984C16.5928 2.40888 16.9909 2.66782 17.3231 3C17.6552 3.33218 17.9142 3.73024 18.0832 4.16855C18.3069 4.77296 18.4252 5.41124 18.4331 6.05564C18.4815 7.12742 18.4921 7.44871 18.4921 10.1618C18.4921 12.8748 18.4819 13.1961 18.4331 14.2679C18.4252 14.9123 18.3069 15.5506 18.0832 16.155C17.9142 16.5933 17.6552 16.9914 17.3231 17.3235C16.9909 17.6557 16.5928 17.9147 16.1545 18.0837C15.5501 18.3073 14.9118 18.4257 14.2674 18.4335C13.1961 18.4819 12.8748 18.4926 10.1613 18.4926C7.44774 18.4926 7.12645 18.4824 6.05516 18.4335C5.41076 18.4257 4.77248 18.3073 4.16807 18.0837C3.72976 17.9147 3.3317 17.6557 2.99952 17.3235C2.66734 16.9914 2.40839 16.5933 2.23935 16.155C2.01573 15.5506 1.8974 14.9123 1.88952 14.2679C1.84113 13.1961 1.83048 12.8748 1.83048 10.1618C1.83048 7.44871 1.84065 7.12742 1.88952 6.05564C1.8974 5.41124 2.01573 4.77296 2.23935 4.16855C2.40839 3.73024 2.66734 3.33218 2.99952 3C3.3317 2.66782 3.72976 2.40888 4.16807 2.23984C4.77248 2.01621 5.41076 1.89789 6.05516 1.89C7.12694 1.84161 7.44823 1.83097 10.1613 1.83097ZM10.1613 0C7.40323 0 7.05581 0.0116129 5.97194 0.0609677C5.12857 0.0777425 4.29416 0.237426 3.50419 0.533226C2.82653 0.788548 2.21274 1.18866 1.70565 1.70565C1.18819 2.21292 0.787739 2.82706 0.532258 3.50516C0.236458 4.29513 0.0767748 5.12954 0.06 5.9729C0.0116129 7.05581 0 7.40323 0 10.1613C0 12.9194 0.0116129 13.2668 0.0609677 14.3506C0.0777425 15.194 0.237426 16.0284 0.533226 16.8184C0.788423 17.4964 1.18854 18.1105 1.70565 18.6179C2.21302 19.135 2.82715 19.5351 3.50516 19.7903C4.29513 20.0861 5.12954 20.2458 5.9729 20.2626C7.05677 20.311 7.40274 20.3235 10.1623 20.3235C12.9218 20.3235 13.2677 20.3119 14.3516 20.2626C15.195 20.2458 16.0294 20.0861 16.8194 19.7903C17.4941 19.5288 18.1069 19.1292 18.6185 18.6173C19.1301 18.1054 19.5292 17.4924 19.7903 16.8174C20.0861 16.0275 20.2458 15.193 20.2626 14.3497C20.311 13.2668 20.3226 12.9194 20.3226 10.1613C20.3226 7.40323 20.311 7.05581 20.2616 5.97193C20.2448 5.12857 20.0852 4.29416 19.7894 3.50419C19.5342 2.82618 19.134 2.21205 18.6169 1.70468C18.1096 1.18757 17.4954 0.787455 16.8174 0.532258C16.0275 0.236458 15.193 0.0767748 14.3497 0.06C13.2668 0.0116129 12.9194 0 10.1613 0Z" fill="#2948FF"/>
<path d="M10.1634 4.94531C9.13134 4.94531 8.12248 5.25135 7.26438 5.82472C6.40627 6.39808 5.73746 7.21303 5.34252 8.16651C4.94757 9.11999 4.84424 10.1692 5.04558 11.1814C5.24692 12.1936 5.74389 13.1233 6.47365 13.8531C7.20341 14.5829 8.13318 15.0798 9.14539 15.2812C10.1576 15.4825 11.2068 15.3792 12.1602 14.9842C13.1137 14.5893 13.9287 13.9205 14.502 13.0624C15.0754 12.2043 15.3814 11.1954 15.3814 10.1634C15.3814 8.77946 14.8317 7.45223 13.8531 6.47365C12.8745 5.49507 11.5473 4.94531 10.1634 4.94531ZM10.1634 13.5505C9.49347 13.5505 8.83861 13.3518 8.28161 12.9796C7.7246 12.6075 7.29047 12.0785 7.03411 11.4596C6.77775 10.8407 6.71067 10.1596 6.84136 9.50259C6.97206 8.84555 7.29465 8.24203 7.76834 7.76834C8.24203 7.29464 8.84556 6.97205 9.50259 6.84136C10.1596 6.71067 10.8407 6.77775 11.4596 7.03411C12.0785 7.29047 12.6075 7.7246 12.9796 8.28161C13.3518 8.83861 13.5505 9.49347 13.5505 10.1634C13.5505 11.0617 13.1936 11.9232 12.5584 12.5584C11.9232 13.1936 11.0617 13.5505 10.1634 13.5505Z" fill="#2948FF"/>
<path d="M15.5865 5.95726C16.26 5.95726 16.8059 5.41134 16.8059 4.73791C16.8059 4.06448 16.26 3.51855 15.5865 3.51855C14.9131 3.51855 14.3672 4.06448 14.3672 4.73791C14.3672 5.41134 14.9131 5.95726 15.5865 5.95726Z" fill="#2948FF"/>
</svg>
