<svg width="32" height="32" viewBox="0 0 32 32" fill="none" xmlns="http://www.w3.org/2000/svg">
<path fill-rule="evenodd" clip-rule="evenodd" d="M16.8203 2.80065L25.6771 5.82324C26.6677 6.1619 27.3332 7.07388 27.3332 8.09519V16.9496C27.3332 19.6336 26.3357 22.2322 24.5259 24.2601C23.6972 25.1894 22.6338 25.9881 21.2755 26.7027L16.4883 29.216C16.3387 29.2933 16.1741 29.3333 16.0081 29.3333C15.8434 29.3333 15.6788 29.2933 15.5292 29.216L10.7324 26.7014C9.37135 25.9854 8.30662 25.1868 7.47926 24.2614C5.66675 22.2308 4.6665 19.6309 4.6665 16.9443C4.6665 16.403 5.11929 15.963 5.67635 15.963C6.23341 15.963 6.6862 16.403 6.6862 16.9443C6.6862 19.1602 7.50944 21.3015 9.00363 22.9762C9.66909 23.7215 10.5486 24.3748 11.6915 24.9748L16.0081 27.2374L20.315 24.9761C21.4552 24.3774 22.3347 23.7241 23.0015 22.9762C24.493 21.3029 25.3148 19.1642 25.3148 16.9496V8.09519C25.3148 7.90586 25.1914 7.73786 25.0089 7.6752L16.1521 4.65261C16.0547 4.61927 15.9463 4.61927 15.8475 4.65261L6.99217 7.6752C6.80968 7.73786 6.6862 7.90586 6.6862 8.09519V10.6285C6.6862 11.1711 6.23341 11.6111 5.67635 11.6111C5.11929 11.6111 4.6665 11.1711 4.6665 10.6285V8.09519C4.6665 7.07388 5.33333 6.1619 6.32397 5.82324L15.1793 2.80065C15.709 2.62199 16.2921 2.62199 16.8203 2.80065ZM15.0482 19.09C14.7792 19.09 14.524 18.986 14.3347 18.802L11.7881 16.3274C11.3943 15.9434 11.3943 15.3247 11.7881 14.9407C12.1833 14.5568 12.8213 14.5568 13.2151 14.9407L15.0482 16.7207L19.5788 12.3195C19.9725 11.9368 20.6119 11.9368 21.0057 12.3195C21.3995 12.7021 21.3995 13.3235 21.0057 13.7061L15.7616 18.802C15.5723 18.986 15.3157 19.09 15.0482 19.09Z" fill="#2948FF"/>
</svg>
