<svg width="17" height="14" viewBox="0 0 17 14" fill="none" xmlns="http://www.w3.org/2000/svg">
<path d="M16.7609 1.57133C16.1324 1.85068 15.4689 2.02527 14.7705 2.13003C15.4689 1.71101 16.0276 1.04756 16.272 0.24443C15.6086 0.628534 14.8753 0.907882 14.0722 1.08247C13.4436 0.419022 12.5357 0 11.558 0C9.67243 0 8.13601 1.53641 8.13601 3.42201C8.13601 3.70136 8.17093 3.94579 8.24077 4.19022C5.41237 4.05055 2.86332 2.68873 1.15231 0.593615C0.872963 1.11739 0.69837 1.67609 0.69837 2.30462C0.69837 3.49185 1.29199 4.53941 2.23479 5.16794C1.67609 5.13302 1.15231 4.99335 0.663452 4.74892V4.78384C0.663452 6.45993 1.85068 7.85667 3.42201 8.17093C3.14267 8.24077 2.8284 8.27569 2.51413 8.27569C2.30462 8.27569 2.06019 8.24077 1.85068 8.20585C2.30462 9.56768 3.56169 10.5803 5.06319 10.5803C3.87596 11.4882 2.40938 12.0469 0.803126 12.0469C0.523778 12.0469 0.24443 12.0469 0 12.012C1.53641 12.9897 3.31726 13.5484 5.2727 13.5484C11.5929 13.5484 15.0499 8.31061 15.0499 3.7712C15.0499 3.63153 15.0499 3.45693 15.0499 3.31726C15.7133 2.86332 16.3069 2.2697 16.7609 1.57133Z" fill="#2948FF"/>
</svg>
