<svg width="27" height="27" viewBox="0 0 27 27" fill="none" xmlns="http://www.w3.org/2000/svg">
<path d="M14.676 13.4841C15.2648 12.9745 15.737 12.3441 16.0607 11.6359C16.3844 10.9276 16.5519 10.158 16.5519 9.3793C16.5519 7.91604 15.9706 6.51271 14.9359 5.47802C13.9012 4.44334 12.4979 3.86206 11.0346 3.86206C9.57135 3.86206 8.16802 4.44334 7.13334 5.47802C6.09866 6.51271 5.51738 7.91604 5.51738 9.3793C5.51737 10.158 5.68488 10.9276 6.00855 11.6359C6.33222 12.3441 6.80446 12.9745 7.39324 13.4841C5.84856 14.1836 4.53803 15.3131 3.61832 16.7377C2.69861 18.1623 2.20866 19.8216 2.20703 21.5172C2.20703 21.8099 2.32329 22.0906 2.53022 22.2975C2.73716 22.5044 3.01783 22.6207 3.31048 22.6207C3.60313 22.6207 3.8838 22.5044 4.09074 22.2975C4.29767 22.0906 4.41393 21.8099 4.41393 21.5172C4.41393 19.7613 5.11146 18.0773 6.35308 16.8357C7.5947 15.5941 9.2787 14.8965 11.0346 14.8965C12.7905 14.8965 14.4745 15.5941 15.7162 16.8357C16.9578 18.0773 17.6553 19.7613 17.6553 21.5172C17.6553 21.8099 17.7716 22.0906 17.9785 22.2975C18.1854 22.5044 18.4661 22.6207 18.7588 22.6207C19.0514 22.6207 19.3321 22.5044 19.539 22.2975C19.7459 22.0906 19.8622 21.8099 19.8622 21.5172C19.8606 19.8216 19.3706 18.1623 18.4509 16.7377C17.5312 15.3131 16.2207 14.1836 14.676 13.4841ZM11.0346 12.6896C10.3799 12.6896 9.73987 12.4955 9.19549 12.1318C8.6511 11.768 8.22681 11.251 7.97626 10.6461C7.72571 10.0412 7.66015 9.37563 7.78788 8.73349C7.91561 8.09134 8.23089 7.50149 8.69385 7.03853C9.15681 6.57557 9.74666 6.2603 10.3888 6.13256C11.0309 6.00483 11.6965 6.07039 12.3014 6.32094C12.9063 6.57149 13.4233 6.99579 13.7871 7.54017C14.1508 8.08456 14.345 8.72458 14.345 9.3793C14.345 10.2573 13.9962 11.0993 13.3754 11.7201C12.7546 12.3409 11.9126 12.6896 11.0346 12.6896ZM23.956 10.0745C23.8534 9.97105 23.7314 9.88896 23.5969 9.83294C23.4624 9.77692 23.3182 9.74808 23.1725 9.74808C23.0269 9.74808 22.8827 9.77692 22.7482 9.83294C22.6137 9.88896 22.4917 9.97105 22.3891 10.0745L20.1822 12.2814L19.4981 11.5862C19.3955 11.4828 19.2734 11.4007 19.139 11.3447C19.0045 11.2886 18.8603 11.2598 18.7146 11.2598C18.5689 11.2598 18.4247 11.2886 18.2903 11.3447C18.1558 11.4007 18.0337 11.4828 17.9312 11.5862C17.7257 11.7929 17.6103 12.0726 17.6103 12.3641C17.6103 12.6556 17.7257 12.9353 17.9312 13.1421L19.4098 14.6207C19.6165 14.8262 19.8962 14.9416 20.1877 14.9416C20.4792 14.9416 20.7589 14.8262 20.9657 14.6207L23.9119 11.6745C24.0233 11.5744 24.1131 11.4527 24.176 11.3168C24.2389 11.1809 24.2734 11.0336 24.2776 10.884C24.2817 10.7343 24.2553 10.5853 24.2 10.4461C24.1447 10.307 24.0617 10.1805 23.956 10.0745Z" fill="#2948FF"/>
</svg>
