<svg width="21" height="21" viewBox="0 0 21 21" fill="none" xmlns="http://www.w3.org/2000/svg">
<path d="M3.42265 3.43523L4.9874 5M20.5 10.5C20.5 16.0229 16.0229 20.5 10.5 20.5C4.97715 20.5 0.5 16.0229 0.5 10.5H20.5ZM20.5 10.5H18.5H20.5ZM20.5 10.5C20.5 7.7418 19.3833 5.24435 17.5774 3.43523L20.5 10.5ZM0.5 10.5H2.5H0.5ZM0.5 10.5C0.5 7.74175 1.6167 5.24435 3.42265 3.43523L0.5 10.5ZM10.5 0.5V2.5V0.5ZM10.5 0.5C13.2646 0.5 15.7672 1.62189 17.5774 3.43523L10.5 0.5ZM10.5 0.5C7.7354 0.5 5.2328 1.62189 3.42265 3.43523L10.5 0.5ZM17.5774 3.43523L16.0126 5L17.5774 3.43523Z" stroke="white" stroke-linecap="round" stroke-linejoin="round"/>
</svg>
