<svg width="135" height="94" viewBox="0 0 135 94" fill="none" xmlns="http://www.w3.org/2000/svg">
<path d="M70.0636 37.7584C70.0636 39.0482 68.9911 40.1034 67.6802 40.1034C66.3694 40.1034 65.2968 39.0482 65.2968 37.7584C65.2968 36.4686 66.3098 35.4133 67.6802 35.4133C69.0507 35.4427 70.0636 36.4979 70.0636 37.7584ZM60.2917 42.4485C60.2917 42.6537 60.2917 43.0347 60.2917 43.0347C60.2917 43.0347 59.1596 41.5984 56.7464 41.5984C52.784 41.5984 49.6558 44.5883 49.6558 48.6922C49.6558 52.796 52.7245 55.7859 56.7464 55.7859C59.1894 55.7859 60.2917 54.3203 60.2917 54.3203V54.9358C60.2917 55.229 60.5003 55.4342 60.7982 55.4342H63.7476V41.9502C63.7476 41.9502 61.0365 41.9502 60.7982 41.9502C60.5003 41.9502 60.2917 42.214 60.2917 42.4485ZM60.2917 51.0958C59.7555 51.8873 58.6531 52.5615 57.3423 52.5615C55.0185 52.5615 53.2309 51.1251 53.2309 48.6922C53.2309 46.2592 55.0185 44.8228 57.3423 44.8228C58.6233 44.8228 59.7853 45.5263 60.2917 46.2885V51.0958ZM65.9523 41.9502H69.4678V55.4342H65.9523V41.9502ZM118.238 41.5984C115.825 41.5984 114.693 43.0347 114.693 43.0347V35.472H111.177V55.4635C111.177 55.4635 113.888 55.4635 114.127 55.4635C114.424 55.4635 114.633 55.1997 114.633 54.9651V54.3496C114.633 54.3496 115.765 55.8152 118.178 55.8152C122.141 55.8152 125.269 52.796 125.269 48.7215C125.299 44.6176 122.171 41.5984 118.238 41.5984ZM117.672 52.5322C116.331 52.5322 115.259 51.858 114.722 51.0665V46.2592C115.259 45.5557 116.45 44.7935 117.672 44.7935C119.996 44.7935 121.783 46.2299 121.783 48.6628C121.783 51.0958 119.996 52.5322 117.672 52.5322ZM109.39 47.4317V55.4635H105.874V47.8421C105.874 45.6143 105.159 44.7056 103.163 44.7056C102.09 44.7056 101.018 45.2332 100.333 46.0247V55.4342H96.8172V41.9502H99.5879C99.8858 41.9502 100.094 42.214 100.094 42.4485V43.0347C101.107 41.9795 102.478 41.5984 103.818 41.5984C105.338 41.5984 106.619 42.0381 107.662 42.8882C108.913 43.8848 109.39 45.1746 109.39 47.4317ZM88.3264 41.5984C85.9132 41.5984 84.7811 43.0347 84.7811 43.0347V35.472H81.2656V55.4635C81.2656 55.4635 83.9767 55.4635 84.215 55.4635C84.5129 55.4635 84.7215 55.1997 84.7215 54.9651V54.3496C84.7215 54.3496 85.8536 55.8152 88.2668 55.8152C92.2292 55.8152 95.3574 52.796 95.3574 48.7215C95.4169 44.6176 92.3185 41.5984 88.3264 41.5984ZM87.7603 52.5322C86.4196 52.5322 85.3471 51.858 84.8109 51.0665V46.2592C85.3471 45.5557 86.5388 44.7935 87.7603 44.7935C90.0841 44.7935 91.8716 46.2299 91.8716 48.6628C91.8716 51.0958 90.0841 52.5322 87.7603 52.5322ZM78.2565 41.5984C79.3291 41.5984 79.8653 41.7743 79.8653 41.7743V44.9694C79.8653 44.9694 76.9457 44.0021 75.1283 46.054V55.4928H71.6128V41.9502C71.6128 41.9502 74.3239 41.9502 74.5623 41.9502C74.8602 41.9502 75.0687 42.214 75.0687 42.4485V43.0347C75.754 42.2726 77.184 41.5984 78.2565 41.5984ZM41.9098 54.2323C41.7311 53.7926 41.5523 53.3236 41.3736 52.9425C41.0756 52.2977 40.7777 51.6821 40.5394 51.1251L40.5096 51.0958C38.007 45.7022 35.2959 40.25 32.4358 34.8857L32.3167 34.6805C32.0187 34.1529 31.7208 33.5666 31.4527 32.9804C31.0952 32.3355 30.7377 31.6613 30.1418 31.0164C28.9799 29.58 27.3115 28.7886 25.524 28.7886C23.7067 28.7886 22.0681 29.5801 20.8466 30.9285C20.3103 31.5733 19.8932 32.2475 19.5357 32.8924C19.2378 33.4787 18.9399 34.0356 18.6718 34.5926L18.5526 34.7978C15.7521 40.1914 13.0112 45.6436 10.4788 51.0079L10.4491 51.0665C10.1809 51.6528 9.91279 52.239 9.61487 52.8839C9.43611 53.265 9.25736 53.7047 9.07861 54.1737C8.60193 55.4928 8.45297 56.7532 8.63172 58.043C9.01902 60.7398 10.8661 62.9969 13.3687 63.9936C14.3221 64.3746 15.3052 64.5798 16.3182 64.5798C16.6161 64.5798 16.9736 64.5505 17.2715 64.5212C18.4632 64.3746 19.7145 63.9936 20.9062 63.2901C22.3958 62.4693 23.8258 61.2675 25.4346 59.5673C27.0434 61.2968 28.5032 62.4693 29.9631 63.2901C31.1548 63.9643 32.406 64.3746 33.5977 64.5212C33.8957 64.5505 34.2532 64.5798 34.5511 64.5798C35.564 64.5798 36.6068 64.4039 37.5005 63.9936C40.0627 62.9969 41.8502 60.6812 42.2375 58.043C42.5355 56.8119 42.3865 55.5514 41.9098 54.2323ZM25.4644 56.079C23.4981 53.6461 22.217 51.3303 21.7702 49.3957C21.5914 48.5749 21.5616 47.8421 21.651 47.1972C21.7106 46.6109 21.9489 46.1126 22.2468 45.7022C22.9321 44.7349 24.094 44.1193 25.4644 44.1193C26.8349 44.1193 28.0266 44.7056 28.682 45.7022C28.9799 46.1419 29.1885 46.6402 29.2778 47.1972C29.397 47.8421 29.3374 48.6042 29.1587 49.3957C28.7118 51.3303 27.4307 53.6167 25.4644 56.079ZM40.0031 57.7792C39.735 59.6552 38.4837 61.2675 36.6961 61.971C35.8322 62.3227 34.8788 62.44 33.9255 62.3227C33.0019 62.2055 32.1081 61.9417 31.1548 61.3847C29.8439 60.6812 28.533 59.5673 26.9838 57.8965C29.397 54.9945 30.8568 52.327 31.3931 49.9526C31.6612 48.8387 31.691 47.8421 31.5719 46.9041C31.4229 45.9954 31.0952 45.1746 30.5887 44.4711C29.4566 42.8589 27.5499 41.9208 25.4346 41.9208C23.3194 41.9208 21.4127 42.8882 20.2805 44.4711C19.7741 45.1746 19.4464 46.0247 19.2974 46.9041C19.1484 47.8421 19.1782 48.868 19.4761 49.9526C20.0124 52.327 21.5318 55.0238 23.8854 57.9258C22.3958 59.5673 21.0551 60.6812 19.7145 61.414C18.7611 61.9417 17.8674 62.2348 16.9438 62.352C15.9606 62.4693 15.0073 62.3227 14.1731 62.0003C12.3856 61.2968 11.1045 59.6552 10.8661 57.8085C10.747 56.8998 10.8364 56.0204 11.1939 55.0238C11.313 54.672 11.4918 54.3203 11.6705 53.8806C11.9387 53.2943 12.2068 52.708 12.5047 52.0925L12.5345 52.0338C15.0371 46.6989 17.7482 41.2173 20.5487 35.9117L20.6678 35.7065C20.9658 35.1788 21.2637 34.5926 21.5318 34.0649C21.8297 33.4787 22.1575 32.951 22.5448 32.482C23.3194 31.632 24.3323 31.163 25.4644 31.163C26.5965 31.163 27.6095 31.632 28.3841 32.482C28.7714 32.951 29.0991 33.4787 29.397 34.0649C29.6949 34.5926 29.9929 35.1788 30.261 35.7065L30.3802 35.9117C33.1509 41.2466 35.862 46.7282 38.3645 52.0632V52.0925C38.6624 52.6787 38.9008 53.3236 39.1987 53.8806C39.3775 54.3203 39.5562 54.672 39.6754 55.0238C40.0329 55.9325 40.1521 56.8412 40.0031 57.7792Z" fill="#4F5665"/>
</svg>
