<svg width="38" height="13" viewBox="0 0 38 13" fill="none" xmlns="http://www.w3.org/2000/svg">
<path fill-rule="evenodd" clip-rule="evenodd" d="M6.29992 0.4282C6.28749 0.4282 6.27507 0.4282 6.26264 0.4282C4.59361 0.4282 2.98774 0.81831 1.43156 1.60531C0.799983 3.11672 0.443812 4.65317 0.425175 6.22091C0.400326 7.77614 0.718705 9.36891 1.42483 10.9935C3.04986 11.7049 4.67489 12.07 6.29992 12.0892C7.92494 12.07 9.54997 11.7049 11.1745 10.9935C11.8811 9.36891 12.1995 7.77614 12.1747 6.22091C12.156 4.65317 11.7998 3.11672 11.1683 1.60531C9.61209 0.81831 8.00622 0.4282 6.33719 0.4282C6.32477 0.4282 6.31234 0.4282 6.29992 0.4282Z" fill="#FEFEFE"/>
<path d="M1.16894 1.25951C2.8064 0.415665 4.50597 0 6.26249 0C6.27492 0 6.28734 0 6.29977 0C6.31219 0 6.32461 0 6.33704 0C8.09356 0 9.79313 0.415665 11.4306 1.25951L11.531 1.36643C12.1994 2.95294 12.5809 4.57127 12.5995 6.21464C12.5995 6.24593 12.5995 6.27096 12.5995 6.30278V6.41595C12.5933 7.99621 12.2558 9.60828 11.531 11.2454L11.4182 11.3523C9.71237 12.1143 8.00607 12.4981 6.29977 12.5174C4.59346 12.4981 2.88716 12.1143 1.18137 11.3523L1.06851 11.2454C0.343746 9.60828 0.00621228 7.99621 0 6.41595V6.30278C0 6.27096 0 6.24593 0 6.21464C0.0186368 4.57127 0.400174 2.95294 1.06851 1.36643L1.16894 1.25951ZM6.29977 0.428182C6.28734 0.428182 6.27492 0.428182 6.26249 0.428182C4.59346 0.428182 2.98759 0.818292 1.43141 1.60529C0.79983 3.11671 0.44366 4.65316 0.425023 6.2209C0.400174 7.77612 0.718553 9.36889 1.42468 10.9935C3.04971 11.7049 4.67474 12.0699 6.29977 12.0892C7.92479 12.0699 9.54982 11.7049 11.1743 10.9935C11.881 9.36889 12.1994 7.77612 12.1745 6.2209C12.1559 4.65316 11.7997 3.11671 11.1681 1.60529C9.61194 0.818292 8.00607 0.428182 6.33704 0.428182C6.32461 0.428182 6.31219 0.428182 6.29977 0.428182Z" fill="#003399"/>
<path fill-rule="evenodd" clip-rule="evenodd" d="M6.41259 9.75344C6.3251 8.55077 6.38153 7.29752 6.02536 6.1517C5.69404 5.0815 4.4376 4.47078 4.41275 3.29315C4.38791 2.37368 5.08161 1.30975 6.38153 1.30975C7.60017 1.30349 8.35651 2.1974 8.444 3.1925C8.55013 4.34457 7.16272 5.11906 6.80034 6.21481C6.42501 7.33559 6.53166 8.5758 6.41259 9.75344Z" fill="#003399"/>
<path fill-rule="evenodd" clip-rule="evenodd" d="M6.89242 9.4632C6.8422 8.41804 6.8422 7.41721 7.13004 6.52903C7.44842 5.52194 8.11106 4.67183 9.12366 4.3949C9.81736 4.2061 10.8357 5.02439 10.6736 5.86198C10.5359 6.53581 9.86706 7.32907 8.79234 7.41721C8.29225 7.46102 8.08 7.86416 7.76731 8.09729C9.16715 7.95856 10.0736 7.40469 10.7047 6.82526C10.7984 7.31603 10.861 8.1411 10.4795 8.4243C9.72987 8.95939 9.03617 8.52495 8.15455 8.77686C7.66119 8.92184 7.35472 9.23685 6.89242 9.4632Z" fill="#003399"/>
<path fill-rule="evenodd" clip-rule="evenodd" d="M5.93776 9.4632C5.99367 8.41804 5.98746 7.41721 5.70635 6.52903C5.38745 5.52194 4.72533 4.67183 3.71273 4.3949C3.01902 4.2061 1.994 5.02439 2.16277 5.86198C2.30047 6.53581 2.96881 7.32907 4.04405 7.41721C4.53792 7.46102 4.75639 7.86416 5.06907 8.09729C3.66251 7.95856 2.76277 7.40469 2.1317 6.82526C2.038 7.31603 1.97536 8.1411 2.35638 8.4243C3.10651 8.95939 3.80022 8.52495 4.68132 8.77686C5.1752 8.92184 5.47494 9.23685 5.93776 9.4632Z" fill="#003399"/>
<path fill-rule="evenodd" clip-rule="evenodd" d="M9.26802 11.0187V10.8487L9.3933 10.8174L9.26802 10.6286V10.3136L9.83075 11.1006L9.63092 11.1511L9.49322 10.9556L9.26802 11.0187ZM9.26802 10.3136V10.6286L9.18053 10.5024L9.14326 10.8805L9.26802 10.8487V11.0187L9.12462 11.0505L9.09926 11.2831L8.89943 11.3337L9.03092 10.3073L9.23075 10.2567L9.26802 10.3136ZM7.40589 11.5668V11.4031H7.44938C7.51823 11.3968 7.56223 11.3905 7.58087 11.3838C7.60572 11.3775 7.63057 11.3587 7.64351 11.3399C7.66215 11.3149 7.66836 11.2894 7.66836 11.2581C7.66215 11.2268 7.65594 11.2012 7.63678 11.1824C7.62436 11.1637 7.59951 11.1511 7.57466 11.1449C7.54981 11.1386 7.49338 11.1386 7.40589 11.1449V10.9811C7.45559 10.9811 7.48717 10.9749 7.49959 10.9749C7.53065 10.9686 7.55602 10.9493 7.57466 10.9305C7.5933 10.9118 7.59951 10.8867 7.5933 10.8549C7.5933 10.8236 7.58087 10.7986 7.56223 10.7855C7.54981 10.7668 7.52444 10.7543 7.48717 10.7543C7.47474 10.7543 7.44938 10.7543 7.40589 10.7605V10.5968C7.47474 10.5905 7.52444 10.5905 7.55602 10.5968C7.5933 10.5968 7.63057 10.6098 7.66215 10.6286C7.69321 10.6411 7.71806 10.6661 7.74343 10.6974C7.76206 10.7292 7.77449 10.7668 7.7807 10.8111C7.78691 10.8549 7.77449 10.8992 7.75585 10.9368C7.73721 10.9749 7.70563 11.0062 7.66215 11.0312C7.72427 11.0442 7.77449 11.0693 7.80555 11.1068C7.84334 11.1449 7.86198 11.1887 7.86819 11.2455C7.86819 11.2894 7.86198 11.3337 7.84955 11.3775C7.83092 11.4218 7.80555 11.4531 7.77449 11.4849C7.73721 11.51 7.69942 11.5287 7.64972 11.5413C7.61814 11.5475 7.53687 11.5538 7.41832 11.5668H7.40589ZM8.58674 11.0375L8.78088 11.063C8.76845 11.1699 8.73687 11.2581 8.68096 11.3212C8.62453 11.3775 8.54326 11.4218 8.44334 11.4406C8.31806 11.4594 8.20572 11.4343 8.11202 11.365C8.01211 11.2894 7.95568 11.1824 7.92462 11.0312C7.89925 10.8742 7.9184 10.7417 7.98674 10.6411C8.04938 10.5404 8.14929 10.4773 8.28079 10.4523C8.39934 10.433 8.49304 10.4523 8.58053 10.5086C8.63075 10.5404 8.67423 10.5905 8.70581 10.6661L8.52462 10.7417C8.50598 10.6974 8.4744 10.6599 8.43713 10.6411C8.39313 10.616 8.34964 10.6098 8.29943 10.616C8.23057 10.6286 8.18087 10.6661 8.14308 10.723C8.10581 10.7855 8.0996 10.868 8.11823 10.9811C8.14308 11.1006 8.18087 11.1824 8.23057 11.2268C8.28079 11.2706 8.34343 11.2894 8.41176 11.2768C8.46198 11.2643 8.49977 11.2393 8.53083 11.2012C8.56189 11.1637 8.58053 11.1068 8.58674 11.0375ZM7.40589 10.5968V10.7605C7.38104 10.7605 7.35568 10.7668 7.32461 10.7668L7.21228 10.7798L7.23091 10.9999L7.36189 10.9874C7.37431 10.9874 7.39347 10.9874 7.40589 10.9811V11.1449C7.40589 11.1449 7.40589 11.1449 7.39968 11.1449L7.24955 11.1574L7.26819 11.4156L7.40589 11.4031V11.5668L7.09321 11.5981L7.00572 10.6348L7.38725 10.6035C7.39347 10.5968 7.39968 10.5968 7.40589 10.5968ZM6.19967 11.233V11.0693C6.24316 11.0693 6.26853 11.063 6.28716 11.0567C6.31201 11.0505 6.33065 11.0312 6.3498 11.0124C6.36223 10.9874 6.36844 10.9624 6.36844 10.9368C6.37465 10.8992 6.36223 10.8742 6.34307 10.8487C6.32444 10.8236 6.29959 10.8111 6.26853 10.8048C6.24937 10.8048 6.23074 10.7986 6.19967 10.7986V10.6348C6.29338 10.6348 6.3498 10.6411 6.38087 10.6536C6.43729 10.6661 6.48078 10.6974 6.51857 10.748C6.55584 10.7986 6.57448 10.8612 6.56827 10.9368C6.56827 10.9936 6.55584 11.0442 6.53721 11.088C6.51184 11.1256 6.48699 11.1574 6.45593 11.1824C6.41814 11.2012 6.38708 11.2137 6.3498 11.2268C6.31201 11.233 6.26231 11.233 6.19967 11.233ZM6.19967 10.6348V10.7986C6.18104 10.7986 6.15567 10.7986 6.12461 10.7986L6.03091 10.7923V11.0693H6.13082C6.15567 11.0693 6.18104 11.0693 6.19967 11.0693V11.233C6.18725 11.233 6.16809 11.233 6.14946 11.233H6.02469L6.01848 11.5981L5.82435 11.5918L5.8435 10.6286L6.14946 10.6348C6.16809 10.6348 6.18725 10.6348 6.19967 10.6348ZM4.39345 11.1386V10.8424C4.44988 10.8549 4.48715 10.8549 4.50579 10.8549C4.53116 10.8487 4.5498 10.8424 4.56843 10.8236C4.58086 10.8048 4.59328 10.7855 4.59949 10.7543C4.60571 10.723 4.59949 10.6974 4.58707 10.6724C4.57464 10.6473 4.5498 10.6348 4.51822 10.6223C4.50579 10.616 4.46231 10.6098 4.39345 10.5968V10.433L4.47473 10.446C4.57464 10.4648 4.6435 10.4836 4.68698 10.5086C4.73099 10.5342 4.76205 10.5717 4.78069 10.6223C4.79984 10.6661 4.80605 10.723 4.79363 10.7798C4.78069 10.8487 4.74962 10.9055 4.69993 10.9431C4.65592 10.9811 4.58707 10.9999 4.49958 10.9999C4.53737 11.0312 4.56843 11.063 4.58707 11.0943C4.61192 11.1324 4.63728 11.1887 4.66835 11.2706L4.74962 11.4787L4.52443 11.4343L4.42451 11.2012C4.41209 11.1824 4.40588 11.1574 4.39345 11.1386ZM4.94324 10.5404L5.13064 10.5592L5.08716 11.0818C5.08095 11.1637 5.08095 11.2205 5.08095 11.2393C5.08716 11.2831 5.10579 11.3149 5.13064 11.3399C5.16222 11.3712 5.1995 11.3838 5.25592 11.3905C5.31235 11.3968 5.35584 11.3838 5.38069 11.365C5.41227 11.3462 5.4309 11.3212 5.44333 11.2894C5.44954 11.2581 5.45575 11.2012 5.46197 11.1256L5.50597 10.5905L5.69958 10.6098L5.6561 11.1131C5.64989 11.233 5.63694 11.3149 5.61831 11.3587C5.60588 11.4031 5.58103 11.4469 5.55567 11.4719C5.52461 11.5037 5.48112 11.5287 5.4309 11.5413C5.3869 11.5606 5.32478 11.5606 5.24971 11.5538C5.15601 11.5475 5.08716 11.5287 5.04315 11.5037C4.99967 11.4787 4.96188 11.4469 4.93703 11.4156C4.91218 11.3775 4.89975 11.3399 4.89354 11.3024C4.88733 11.2455 4.88733 11.1637 4.89354 11.0567L4.94324 10.5404ZM3.42486 10.8236L3.46213 10.6661L3.86852 10.773L3.7686 11.1449C3.71839 11.1762 3.65574 11.195 3.56826 11.2012C3.48698 11.2075 3.41243 11.2012 3.33737 11.1824C3.23693 11.1574 3.15617 11.1131 3.09975 11.0567C3.03711 10.9936 2.99983 10.918 2.98119 10.8361C2.96825 10.748 2.96825 10.6599 2.99362 10.5717C3.01847 10.4773 3.06195 10.3954 3.12459 10.3261C3.18102 10.2635 3.25609 10.2254 3.34358 10.2066C3.41243 10.1879 3.49319 10.1941 3.5812 10.2192C3.69354 10.2505 3.78103 10.2948 3.83072 10.3641C3.88094 10.4267 3.90579 10.5086 3.89958 10.5968L3.70596 10.5842C3.70596 10.5342 3.69354 10.4898 3.66196 10.4523C3.6309 10.4205 3.59362 10.3892 3.53719 10.3767C3.45592 10.3579 3.38706 10.3641 3.32442 10.4017C3.2623 10.4398 3.2183 10.5149 3.18724 10.616C3.15617 10.7292 3.16239 10.8174 3.19345 10.8867C3.23072 10.9556 3.28715 10.9999 3.36221 11.0187C3.4057 11.0312 3.44349 11.0312 3.48698 11.0312C3.53098 11.0249 3.56826 11.0124 3.60605 10.9999L3.63711 10.8805L3.42486 10.8236ZM4.39345 10.433L4.06834 10.3767L3.90579 11.3274L4.09319 11.3587L4.16205 10.9624L4.20605 10.9686C4.24954 10.9749 4.28111 10.9874 4.29975 10.9936C4.31839 11.0062 4.33081 11.0249 4.34945 11.0442C4.35566 11.063 4.37482 11.0943 4.39345 11.1386V10.8424C4.37482 10.8424 4.35566 10.8361 4.33081 10.8361L4.19362 10.8111L4.2309 10.5717L4.38103 10.5968C4.38724 10.5968 4.39345 10.5968 4.39345 10.5968V10.433Z" fill="#003399"/>
<path fill-rule="evenodd" clip-rule="evenodd" d="M34.1812 9.25573V7.4799H34.9562V4.35693L34.1812 5.91842V2.02097H37.2247L37.9997 10.9998H34.9562V9.25573H34.1812ZM34.1812 2.02097V5.91842L33.4062 7.4799H34.1812V9.25573H32.7187L32.1187 10.9054H30.2312V8.85258L32.3372 4.27505H31.906L33.106 2.02097H34.1812ZM30.2312 5.01198L31.175 2.7579L30.2312 2.22906V5.01198ZM22.7252 4.14936C22.7692 3.8912 22.7692 3.6393 22.7252 3.39991V4.14936ZM30.2312 2.22906V5.01198L30.1065 5.31395C28.2438 3.97308 25.4939 5.19452 25.3375 6.61102C25.1817 8.09062 26.3004 9.28702 29.1565 8.39311L28.175 11.0373C24.4067 11.4592 22.9442 9.95459 22.7252 8.19805V7.20296C22.7817 6.74349 22.9002 6.29653 23.0628 5.88087C24.9192 1.23397 27.9311 2.27913 29.0752 2.19099L29.244 1.67467L30.2312 2.22906ZM30.2312 8.85258L29.2875 10.9054H30.2312V8.85258ZM19.338 10.8485C21.3565 10.4459 23.3377 8.00248 21.3503 6.05714C22.1252 5.64148 22.6067 4.89255 22.7252 4.14936V3.39991C22.5881 2.62543 21.9943 1.99593 20.8755 1.97716L19.338 1.94535V3.67059H19.9753C20.6566 3.67059 20.5691 5.44642 19.719 5.44642H19.338V6.80659C20.2569 6.98287 19.9318 8.2669 19.338 8.66379V10.8485ZM22.7252 7.20296V8.19805C22.688 7.87053 22.688 7.53675 22.7252 7.20296ZM16.6755 1.88902L15.432 4.31938L15.988 4.27505L14.4883 10.9054H18.782C18.9694 10.9054 19.1506 10.8866 19.338 10.8485V8.66379C19.2319 8.73941 19.1128 8.78322 18.9943 8.78322H17.4505L17.963 6.7873H19.119C19.2003 6.7873 19.2754 6.79355 19.338 6.80659V5.44642H18.2628L18.694 3.67059H19.338V1.94535L16.6755 1.88902Z" fill="#003399"/>
</svg>
