<svg width="109" height="23" viewBox="0 0 109 23" fill="none" xmlns="http://www.w3.org/2000/svg">
<path d="M17.7907 20.5705C12.7246 20.5705 8.61898 16.4627 8.61898 11.3957C8.61898 6.32848 12.7246 2.22458 17.7907 2.22458C19.5763 2.22458 21.2434 2.73384 22.6517 3.61656L17.7907 11.3957L26.9421 6.11164C25.9478 4.52748 24.5218 3.16247 22.7974 2.12665C20.6032 0.812988 17.551 0 14.1759 0C9.36141 0 5.13766 1.74951 2.78219 4.36949C1.03827 6.30627 0 8.74388 0 11.3956C0 14.0492 1.03827 16.4886 2.78219 18.4267C5.14379 21.05 9.30462 22.7893 14.0397 22.7893C18.774 22.7893 22.9336 21.0486 25.2967 18.4267C25.4261 18.2824 25.5514 18.1366 25.6699 17.9854L25.3131 16.6479C23.6528 19.0178 20.9029 20.5705 17.7907 20.5705Z" fill="#4F5665"/>
<path d="M48.1306 22.2375L44.2897 7.90904C43.6727 5.59361 41.5643 3.89177 39.0541 3.89177C38.4031 3.89177 37.7793 4.00809 37.2004 4.21865L28.9316 7.22544H37.4361L38.8893 12.6528C37.4797 11.4395 35.6437 10.7013 33.6333 10.7013C29.6412 10.7013 26.4092 13.3764 26.4092 16.6763C26.4092 19.9765 29.6412 22.6556 33.6333 22.6556C36.5072 22.6556 39.0487 21.2486 40.6164 19.0871L41.4595 22.2375H48.1306ZM36.4146 20.0119C34.5731 20.0119 33.0803 18.5205 33.0803 16.6763C33.0803 14.8349 34.5731 13.3421 36.4146 13.3421C38.256 13.3421 39.7501 14.8349 39.7501 16.6763C39.7501 18.5205 38.256 20.0119 36.4146 20.0119Z" fill="#4F5665"/>
<path d="M63.7913 3.89429C63.2874 3.89429 62.8107 4.0057 62.3857 4.20524L57.0766 6.67948C56.8137 5.09899 55.4408 3.89429 53.7846 3.89429C53.2834 3.89429 52.8053 4.0057 52.3749 4.20524L45.8931 7.22551H50.4504V22.2377H57.1215V8.89561C57.1215 7.97503 57.8666 7.22564 58.79 7.22564C59.708 7.22564 60.4585 7.97503 60.4585 8.89561V22.2377H67.1269V7.22551C67.1269 5.38447 65.6328 3.89442 63.7913 3.89442" fill="#4F5665"/>
<path d="M105.627 3.89429C105.122 3.89429 104.642 4.0057 104.211 4.20524L98.9069 6.67948C98.6454 5.09899 97.2725 3.89429 95.6162 3.89429C95.115 3.89429 94.6369 4.0057 94.2052 4.20524L87.7261 7.22551H92.282V22.2377H98.9518V8.89561C98.9518 7.97503 99.6982 7.22564 100.622 7.22564C101.542 7.22564 102.287 7.97503 102.287 8.89561V22.2377H108.961V7.22551C108.961 5.38447 107.466 3.89442 105.627 3.89442" fill="#4F5665"/>
<path d="M88.8047 13.3421C88.8047 18.5601 84.5757 22.7891 79.3591 22.7891C74.1385 22.7891 69.9067 18.5601 69.9067 13.3421C69.9067 8.12539 74.1385 3.89429 79.3591 3.89429C84.5757 3.89429 88.8047 8.12553 88.8047 13.3421ZM79.75 6.7616C79.4531 5.64993 78.3104 4.99003 77.199 5.28886C76.0889 5.58646 75.4256 6.72987 75.7239 7.84141L78.9642 19.9221C79.2638 21.0349 80.4038 21.6941 81.5152 21.3999C82.6266 21.0989 83.2872 19.9561 82.9889 18.8447L79.75 6.7616Z" fill="#4F5665"/>
</svg>
