<svg width="135" height="94" viewBox="0 0 135 94" fill="none" xmlns="http://www.w3.org/2000/svg">
<path d="M65.9614 12.6755H68.0775C78.37 13.2555 85.7086 17.1616 91.1493 22.6359C96.5901 28.1101 100.612 35.3301 101.149 45.6606V47.7072C100.627 58.2028 96.5339 65.1299 91.1493 70.766C85.4929 76.1197 78.5394 80.1759 68.0433 80.692H65.9614C55.6702 80.1108 48.3303 76.2063 42.8896 70.7318C37.449 65.2575 33.4271 58.0376 32.8896 47.7072V45.6606C32.9164 45.6531 32.9295 45.6321 32.9238 45.5924C33.4384 35.3013 37.4822 28.0063 42.8898 22.6017C48.3222 17.1721 55.7369 13.238 65.9614 12.6755ZM59.272 17.5533C57.2441 18.096 55.4255 18.7852 53.7772 19.5999C48.7599 22.0795 44.6223 25.627 41.7293 30.1742C38.9056 34.6127 36.4606 40.3224 36.8147 47.8094C37.038 52.5296 38.1156 56.5001 39.818 59.8846C43.1798 66.5674 48.2981 71.4914 55.3814 74.4842C58.8841 75.9641 63.2243 77.0021 68.1118 76.7695C72.7998 76.5463 76.8622 75.4931 80.2279 73.8019C86.8242 70.487 92.0227 65.3726 94.9039 58.3156C96.3611 54.7459 97.4631 50.622 97.2248 45.6263C96.7739 36.1629 92.9223 29.7462 87.8392 24.8529C85.3241 22.4317 82.2955 20.3722 78.7266 18.8836C75.2638 17.4393 70.7558 16.3684 65.9277 16.5982C63.5542 16.7111 61.3152 17.0065 59.272 17.5533Z" fill="#4F5665"/>
<path d="M63.8797 37.8491C64.961 38.5648 66.0671 39.2559 67.0879 40.0322C64.7818 41.4794 62.5209 42.9721 60.2279 44.4325C60.5761 44.6985 60.9719 44.9168 61.32 45.1829C63.6322 43.7189 65.9451 42.2557 68.2484 40.7826C69.2815 41.4216 70.2985 42.0766 71.252 42.7952C68.9439 44.2522 66.7132 45.7862 64.4259 47.2636C64.7648 47.5391 65.1803 47.7378 65.552 47.98C67.9161 46.5338 70.2214 45.0287 72.5486 43.5457V38.7019H77.6682V48.3553C79.1128 48.4348 80.7058 48.3667 82.2076 48.3892V52.9261H72.5486V48.3209C69.7108 50.0441 66.8026 51.9927 63.948 53.8128C60.9752 51.8836 58.1101 49.8461 55.1425 47.9117C54.2828 50.6352 52.2409 52.684 48.8624 52.9261C46.7554 53.0767 44.3611 52.8136 41.9341 52.9261V38.7019C44.9682 38.9028 48.2999 38.2964 50.7054 39.043C52.8323 39.7032 54.3403 41.3993 55.0399 43.5115C58.0097 41.6473 60.9319 39.7357 63.8797 37.8491ZM46.8145 43.2728V48.3893C48.034 48.3953 48.9616 48.4661 49.6813 47.9119C50.7522 47.0875 50.968 45.0439 50.0226 43.9549C49.3917 43.2284 48.3266 43.0758 46.8485 43.1704C46.8091 43.1761 46.8116 43.2244 46.8145 43.2728ZM83.5384 38.7019H88.6578V48.3893H93.163V52.9262H83.504V38.8043C83.5013 38.7559 83.4985 38.7076 83.5384 38.7019Z" fill="#4F5665"/>
</svg>
