<svg width="102" height="63" viewBox="0 0 102 63" fill="none" xmlns="http://www.w3.org/2000/svg">
<path d="M51.35 5.8487L42.2985 11.6974L51.35 17.5461L42.2985 23.3948L33.2471 17.4974L42.2985 11.6487L33.2471 5.8487L42.2985 0L51.35 5.8487ZM42.2504 25.2469L51.3018 19.3982L60.3533 25.2469L51.3018 31.0956L42.2504 25.2469ZM51.35 17.4974L60.4014 11.6487L51.35 5.8487L60.3533 0L69.4047 5.8487L60.3533 11.6974L69.4047 17.5461L60.3533 23.3948L51.35 17.4974Z" fill="#4F5665"/>
<path d="M0 40.2144H6.61651C10.8389 40.2144 14.3213 42.6521 14.3213 48.2239V49.3992C14.3213 55.0145 11.0565 57.5392 6.74711 57.5392H0V40.2144ZM3.70003 43.3486V54.3616H6.52946C8.92359 54.3616 10.5342 52.7945 10.5342 49.3121V48.398C10.5342 44.9156 8.83653 43.3486 6.39887 43.3486H3.70003ZM16.2801 43.5227H19.2401L19.719 46.7874C20.2848 44.5674 21.7213 43.3921 24.3331 43.3921H25.2472V47.1356H23.7237C20.7201 47.1356 19.9801 48.1804 19.9801 51.1404V57.5828H16.3236V43.5227H16.2801ZM25.9872 50.8357V50.4439C25.9872 45.7427 28.9908 43.1744 33.0826 43.1744C37.2614 43.1744 40.1779 45.7427 40.1779 50.4439V50.8357C40.1779 55.4498 37.3485 57.931 33.0826 57.931C28.5555 57.8875 25.9872 55.4498 25.9872 50.8357ZM36.4344 50.7921V50.4439C36.4344 47.8321 35.1285 46.2651 33.039 46.2651C30.9932 46.2651 29.6437 47.7015 29.6437 50.4439V50.7921C29.6437 53.3169 30.9496 54.7533 33.039 54.7533C35.1285 54.7098 36.4344 53.3169 36.4344 50.7921ZM42.0932 43.5227H45.1403L45.4885 46.178C46.2286 44.3933 47.7956 43.1744 50.1027 43.1744C53.6721 43.1744 56.0227 45.7427 56.0227 50.4874V50.8792C56.0227 55.4934 53.4109 57.931 50.1027 57.931C47.8827 57.931 46.3591 56.9298 45.6191 55.3192V62.4146H42.0497L42.0932 43.5227ZM52.3227 50.7921V50.4874C52.3227 47.7015 50.8862 46.3086 48.9709 46.3086C46.925 46.3086 45.5756 47.8757 45.5756 50.4874V50.7486C45.5756 53.2298 46.8815 54.7969 48.9274 54.7969C51.0168 54.7533 52.3227 53.4039 52.3227 50.7921ZM61.4204 54.971L61.1157 57.5392H57.9816V38.8215H61.551V46.0039C62.3345 44.1756 63.9016 43.1744 66.1216 43.1744C69.4734 43.218 71.9546 45.525 71.9546 50.1827V50.618C71.9546 55.2757 69.604 57.931 66.0346 57.931C63.684 57.8875 62.1604 56.7992 61.4204 54.971ZM68.2111 50.618V50.2698C68.2111 47.7015 66.8181 46.2651 64.8593 46.2651C62.8569 46.2651 61.464 47.8757 61.464 50.3133V50.618C61.464 53.2298 62.8134 54.7533 64.8157 54.7533C66.9487 54.7533 68.2111 53.4039 68.2111 50.618ZM73.5217 50.8357V50.4439C73.5217 45.7427 76.5252 43.1744 80.617 43.1744C84.7959 43.1744 87.7124 45.7427 87.7124 50.4439V50.8357C87.7124 55.4498 84.8394 57.931 80.617 57.931C76.0899 57.8875 73.5217 55.4498 73.5217 50.8357ZM84.0123 50.7921V50.4439C84.0123 47.8321 82.7065 46.2651 80.617 46.2651C78.5711 46.2651 77.2217 47.7015 77.2217 50.4439V50.7921C77.2217 53.3169 78.5276 54.7533 80.617 54.7533C82.7065 54.7098 84.0123 53.3169 84.0123 50.7921ZM92.5006 50.2698L87.5818 43.5227H91.8042L94.6336 47.7451L97.5065 43.5227H101.685L96.6795 50.2263L101.947 57.5392H97.8113L94.5901 52.8816L91.4559 57.5392H87.1465L92.5006 50.2698Z" fill="#4F5665"/>
</svg>
