<svg width="38" height="13" viewBox="0 0 38 13" fill="none" xmlns="http://www.w3.org/2000/svg">
<g clip-path="url(#clip0_60_607)">
<path d="M20.649 10.8467C20.6098 11.5833 20.282 12.0872 19.6536 12.3931C19.4709 12.4814 19.3007 12.4114 19.2177 12.2242C19.1535 12.0794 19.2271 11.9152 19.3988 11.8384C19.8441 11.6397 20.0393 11.2325 20.0309 10.8487C20.0205 10.3819 19.7418 10.0259 19.3028 9.8727C18.88 9.7258 18.4384 9.86852 18.1262 10.2538C17.8867 10.5497 17.8663 11.061 18.0767 11.4034C18.1931 11.5937 18.347 11.737 18.5496 11.8326C18.7406 11.9226 18.8079 12.0888 18.7307 12.2535C18.6519 12.4213 18.465 12.4751 18.2776 12.38C17.7744 12.1259 17.4445 11.7307 17.3438 11.1697C17.1846 10.2831 17.7374 9.48793 18.5339 9.26731C19.4756 9.00644 20.3796 9.60242 20.5905 10.4645C20.6234 10.6004 20.6333 10.7426 20.649 10.8467Z" fill="#00AA11"/>
<path d="M23.0519 9.94644C23.0571 9.87586 23.0607 9.81992 23.0654 9.75562C23.2283 9.75562 23.3849 9.75562 23.5514 9.75562C23.555 9.79117 23.5618 9.82515 23.5618 9.85913C23.5624 10.4342 23.565 11.0098 23.5608 11.5854C23.5577 11.9404 23.4209 12.2326 23.1041 12.4114C22.7074 12.6362 22.0883 12.5656 21.7339 12.2671C21.7005 12.2389 21.6686 12.2091 21.6295 12.174C21.7349 12.07 21.8383 11.9681 21.9521 11.8562C22.129 11.9984 22.3274 12.07 22.5591 12.0632C22.9167 12.0522 23.0931 11.8562 23.0466 11.4745C22.747 11.7093 22.4171 11.7182 22.0815 11.6058C21.8816 11.5389 21.7239 11.405 21.6117 11.2179C21.3753 10.8232 21.4363 10.3223 21.7636 10.0165C22.1144 9.6887 22.6447 9.65525 23.0519 9.94644ZM23.0315 10.7113C23.0315 10.3777 22.8509 10.1958 22.522 10.1989C22.2125 10.2016 22.0042 10.4049 21.9928 10.6872C21.9781 11.0558 22.2172 11.2215 22.5335 11.2173C22.8587 11.2126 23.0315 11.0406 23.0315 10.7113Z" fill="black"/>
<path d="M31.2963 9.74995C30.9967 10.0328 30.7237 10.291 30.4465 10.553C30.7284 10.9283 31.004 11.2953 31.2984 11.6874C31.0969 11.6874 30.9304 11.6926 30.7644 11.6837C30.7258 11.6817 30.6798 11.6404 30.6537 11.6053C30.5003 11.4004 30.3526 11.1913 30.2022 10.9843C30.1772 10.9492 30.15 10.9158 30.1051 10.8562C29.9971 10.9801 29.8593 11.0773 29.8123 11.208C29.7633 11.3445 29.8014 11.5123 29.8014 11.6879C29.7116 11.6879 29.6338 11.6879 29.556 11.6879C29.4819 11.6879 29.4073 11.6879 29.3211 11.6879C29.3175 11.6299 29.3128 11.5834 29.3128 11.5363C29.3123 10.8107 29.3159 10.0845 29.3086 9.35838C29.3076 9.2188 29.3504 9.17854 29.4819 9.19266C29.5816 9.20364 29.6829 9.19475 29.7998 9.19475C29.7998 9.63598 29.7998 10.0615 29.7998 10.5232C29.9517 10.3857 30.0785 10.2733 30.2028 10.1583C30.3296 10.0417 30.4528 9.92143 30.5801 9.80589C30.6078 9.7808 30.6459 9.75309 30.6804 9.75204C30.8725 9.74734 31.0651 9.74995 31.2963 9.74995Z" fill="black"/>
<path d="M27.5451 10.8833C27.5754 11.0882 27.7711 11.245 27.9966 11.2628C28.1871 11.278 28.3656 11.2503 28.5212 11.1263C28.5462 11.1065 28.5995 11.0908 28.6209 11.1039C28.7253 11.1682 28.8229 11.2424 28.9325 11.3198C28.5948 11.657 28.2101 11.7495 27.7685 11.6403C27.4088 11.5514 27.1484 11.3491 27.0638 10.98C26.8806 10.1764 27.4986 9.64529 28.2127 9.76657C28.6271 9.83663 28.885 10.0802 28.9821 10.4859C29.0113 10.6072 29.003 10.7374 29.0129 10.8833C28.7535 10.8833 28.5118 10.8833 28.2701 10.8833C28.0321 10.8833 27.7935 10.8833 27.5451 10.8833ZM28.504 10.5131C28.4705 10.2721 28.279 10.1571 27.9569 10.1723C27.7262 10.1827 27.5696 10.3145 27.5581 10.5131C27.8713 10.5131 28.1835 10.5131 28.504 10.5131Z" fill="black"/>
<path d="M24.8798 9.72214C25.4509 9.74514 25.8753 10.1012 25.9181 10.6558C25.9468 11.0343 25.7808 11.3381 25.4488 11.542C25.0683 11.7757 24.4649 11.7129 24.1428 11.4013C23.6595 10.9334 23.8072 10.1085 24.4263 9.8497C24.5698 9.78958 24.728 9.76396 24.8798 9.72214ZM25.3992 10.7196C25.3982 10.4049 25.1977 10.1968 24.8945 10.1989C24.5541 10.2015 24.3761 10.4211 24.3647 10.7207C24.3537 11.0087 24.6001 11.2398 24.8887 11.2377C25.1972 11.2351 25.4003 11.0291 25.3992 10.7196Z" fill="black"/>
<path d="M26.2173 9.7509C26.3922 9.7509 26.5462 9.7509 26.7216 9.7509C26.7216 9.79429 26.7216 9.83612 26.7216 9.87794C26.7216 10.578 26.7216 11.278 26.721 11.978C26.721 12.3309 26.5154 12.5363 26.1625 12.5374C26.0268 12.5379 25.8906 12.5379 25.7402 12.5379C25.7402 12.4548 25.7402 12.3852 25.7402 12.3157C25.7402 12.2456 25.7402 12.1751 25.7402 12.0804C25.8311 12.0804 25.9135 12.0836 25.9955 12.0794C26.1818 12.0705 26.2173 12.0324 26.2173 11.8483C26.2173 11.2016 26.2173 10.5549 26.2173 9.90826C26.2173 9.86016 26.2173 9.81259 26.2173 9.7509Z" fill="black"/>
<path d="M18.3641 10.8538C18.326 10.5705 18.6846 10.2296 18.9889 10.2495C19.3261 10.272 19.6049 10.5349 19.6028 10.8721C19.6007 11.2077 19.3094 11.5042 18.9743 11.4953C18.6387 11.4864 18.3443 11.2203 18.3641 10.8538Z" fill="#00AA11"/>
<path d="M6.70117 9.98573H7.22158C7.50502 9.98573 7.67257 10.1457 7.67257 10.4024C7.67257 10.6633 7.50711 10.8159 7.22158 10.8159H6.85933V11.3371H6.70117V9.98573ZM7.21219 10.6654C7.41837 10.6654 7.51285 10.5822 7.51285 10.4024C7.51285 10.2231 7.41419 10.1363 7.21219 10.1363H6.85933V10.6654H7.21219Z" fill="black"/>
<path d="M8.23165 10.2847C8.52083 10.2847 8.71396 10.5027 8.71396 10.8252C8.71396 11.1478 8.52083 11.3658 8.23165 11.3658C7.94456 11.3658 7.75195 11.1478 7.75195 10.8252C7.75195 10.5027 7.94456 10.2847 8.23165 10.2847ZM8.23165 10.4258C8.02965 10.4258 7.90228 10.5801 7.90228 10.8252C7.90228 11.0704 8.02965 11.2247 8.23165 11.2247C8.43418 11.2247 8.56363 11.0704 8.56363 10.8252C8.56363 10.5801 8.43418 10.4258 8.23165 10.4258Z" fill="black"/>
<path d="M8.81055 10.3134H8.95879L9.14357 11.1091H9.14774L9.42126 10.3134H9.55802L9.83206 11.1091H9.83571L10.021 10.3134H10.1693L9.92445 11.337H9.78195L9.49277 10.5011H9.4886L9.19786 11.337H9.05483L8.81055 10.3134Z" fill="black"/>
<path d="M10.74 10.2847C11.014 10.2847 11.1967 10.4912 11.1967 10.7923V10.8697H10.42C10.4242 11.0668 10.5494 11.2288 10.7363 11.2288C10.8809 11.2288 10.9618 11.1766 11.0485 11.0239L11.1737 11.0992C11.0871 11.2748 10.9388 11.3658 10.74 11.3658C10.4565 11.3658 10.2676 11.1478 10.2676 10.8252C10.2676 10.5027 10.4628 10.2847 10.74 10.2847ZM11.0448 10.7479C11.0427 10.6532 11.0119 10.5764 10.9561 10.5142C10.9002 10.4525 10.8287 10.4217 10.74 10.4217C10.5667 10.4217 10.4278 10.5764 10.4242 10.7479H11.0448Z" fill="black"/>
<path d="M11.4121 10.3135H11.5546V10.3987H11.5583C11.5969 10.335 11.6721 10.2963 11.7702 10.2963C11.801 10.2963 11.836 10.302 11.8725 10.3119L11.8396 10.4683C11.8031 10.4568 11.7686 10.451 11.7394 10.451C11.6183 10.451 11.5619 10.532 11.5619 10.7229V11.3371H11.4121V10.3135Z" fill="black"/>
<path d="M12.4138 10.2847C12.6873 10.2847 12.8705 10.4912 12.8705 10.7923V10.8697H12.0938C12.0975 11.0668 12.2228 11.2288 12.4096 11.2288C12.5542 11.2288 12.6356 11.1766 12.7223 11.0239L12.8476 11.0992C12.7609 11.2748 12.6121 11.3658 12.4138 11.3658C12.1304 11.3658 11.9414 11.1478 11.9414 10.8252C11.9414 10.5027 12.1361 10.2847 12.4138 10.2847ZM12.7181 10.7479C12.7165 10.6532 12.6857 10.5764 12.6299 10.5142C12.5735 10.4525 12.5025 10.4217 12.4138 10.4217C12.2405 10.4217 12.1017 10.5764 12.0975 10.7479H12.7181Z" fill="black"/>
<path d="M13.5037 10.2847C13.6274 10.2847 13.7371 10.3369 13.8044 10.4216H13.8086V9.9276H13.9589V11.337H13.8143V11.2346H13.8101C13.7428 11.3177 13.629 11.3658 13.5037 11.3658C13.2381 11.3658 13.0449 11.1436 13.0449 10.8252C13.0449 10.5068 13.2381 10.2847 13.5037 10.2847ZM13.8086 10.7249C13.8086 10.5586 13.6734 10.4258 13.5037 10.4258C13.3205 10.4258 13.1953 10.5837 13.1953 10.8252C13.1953 11.0668 13.3205 11.2246 13.5137 11.2246C13.6755 11.2246 13.8086 11.0898 13.8086 10.9235V10.7249Z" fill="black"/>
<path d="M14.8784 11.2346V11.3371H14.7344V9.92763H14.8842V10.4217H14.8884C14.9557 10.337 15.0658 10.2847 15.189 10.2847C15.4552 10.2847 15.6478 10.5069 15.6478 10.8253C15.6478 11.1436 15.4552 11.3658 15.189 11.3658C15.0637 11.3658 14.95 11.3177 14.8826 11.2346H14.8784ZM15.189 10.4258C15.0194 10.4258 14.8842 10.5586 14.8842 10.7249V10.9235C14.8842 11.0898 15.0173 11.2247 15.1791 11.2247C15.3722 11.2247 15.4975 11.0668 15.4975 10.8253C15.4975 10.5837 15.3722 10.4258 15.189 10.4258Z" fill="black"/>
<path d="M16.0903 11.2497L15.6973 10.3134H15.8575L16.1676 11.0762H16.1712L16.4839 10.3134H16.6436L16.0308 11.7709H15.8747L16.0903 11.2497Z" fill="black"/>
<path d="M4.14607 0.003479C6.43547 0.003479 8.29162 1.79769 8.29162 4.01066C8.29162 6.22362 6.43547 8.01784 4.14607 8.01784C1.85615 8.01784 0 6.22362 0 4.01066C0 1.79769 1.85615 0.003479 4.14607 0.003479Z" fill="#00AED6"/>
<path fill-rule="evenodd" clip-rule="evenodd" d="M6.56426 3.8873C6.53242 3.37706 6.08352 2.98601 5.55527 3.00901H2.93651C2.84099 3.00901 2.76373 2.93426 2.76373 2.84172C2.76373 2.74971 2.84099 2.67495 2.93651 2.67495H5.58972C5.57459 2.32939 5.3303 2.03244 4.98527 1.94043C4.2117 1.8066 3.41986 1.8066 2.64629 1.94043C2.20678 2.04499 1.87794 2.3984 1.81739 2.83179C1.69629 3.61806 1.69629 4.41689 1.81739 5.20264C1.90978 5.66165 2.28665 6.01662 2.76373 6.09452C3.72261 6.2111 4.69297 6.2111 5.65184 6.09452C6.07934 6.01087 6.40244 5.67158 6.4536 5.25283C6.54129 4.8027 6.57835 4.34474 6.56426 3.8873ZM5.70038 4.44825V4.59516C5.70038 4.68717 5.62313 4.76193 5.52761 4.76193C5.43209 4.76193 5.35483 4.68717 5.35483 4.59516V4.44825C5.29898 4.4012 5.26766 4.33272 5.26871 4.26109C5.26871 4.12255 5.38459 4.01068 5.52761 4.01068C5.67063 4.01068 5.78651 4.12255 5.78651 4.26109C5.78599 4.33219 5.75467 4.40016 5.70038 4.44825Z" fill="white"/>
<path d="M20.1001 3.56014C20.1059 2.85752 19.5212 2.28349 18.7941 2.27774C18.067 2.27251 17.4735 2.83713 17.4678 3.53976C17.462 4.24238 18.0467 4.81693 18.7738 4.82216C18.7806 4.82216 18.7873 4.82216 18.7941 4.82216C19.4837 4.85823 20.073 4.34642 20.11 3.67986C20.1121 3.64013 20.1121 3.59988 20.1106 3.56014H20.1001ZM16.1895 3.56014C16.1895 2.22442 17.2809 1.20602 18.7941 1.20602C20.3073 1.20602 21.3993 2.23069 21.3993 3.56014C21.3993 4.88907 20.3178 5.9174 18.7941 5.9174C17.2705 5.9174 16.1895 4.89221 16.1895 3.56014Z" fill="black"/>
<path d="M14.1179 3.80348C14.1179 4.35449 13.5375 4.80514 12.802 4.80514C12.126 4.87153 11.5226 4.39527 11.4542 3.74179C11.4475 3.67591 11.4464 3.60952 11.4511 3.54313C11.4511 2.81488 12.0039 2.31405 12.8537 2.31405C13.5448 2.31405 14.1179 2.77149 14.1179 3.28905V3.80348ZM14.1696 1.20208V1.72957C13.7494 1.36048 13.1924 1.17175 12.6256 1.20574C11.2851 1.21724 10.2088 2.27745 10.2208 3.57292C10.2333 4.8684 11.33 5.90927 12.6704 5.89725C13.2222 5.92129 13.7593 5.72159 14.1523 5.34623V5.79687C14.1523 6.40801 13.6069 6.85552 12.8881 6.85552C12.3395 6.89368 11.7987 6.71018 11.3958 6.34789L10.5559 7.12946C11.1854 7.72648 12.0409 8.04748 12.9226 8.01768C14.3945 8.01768 15.403 7.06254 15.403 5.7906V1.20208H14.1696Z" fill="black"/>
<path d="M22.1602 1.33922H23.3967V1.7334H23.4139C23.8195 1.37582 24.3551 1.18866 24.9032 1.21218C26.2493 1.26132 27.2996 2.35605 27.2489 3.65674C27.2009 4.88948 26.1783 5.87755 24.9032 5.92408C24.3796 5.93558 23.8686 5.76934 23.4588 5.45305V7.68379H22.1706L22.1602 1.33922ZM24.7027 2.31422C24.0116 2.31422 23.4489 2.77846 23.4489 3.28295V3.84704C23.4489 4.38447 24.0048 4.82884 24.7095 4.82884C25.4283 4.86439 26.0405 4.33062 26.0776 3.63636C26.1147 2.94209 25.5624 2.35029 24.8436 2.31422C24.7993 2.31213 24.7544 2.31213 24.7095 2.31422H24.7027Z" fill="black"/>
<path d="M29.7231 3.12939C30.5697 3.01908 30.8218 2.90197 30.8218 2.67508C30.8218 2.38128 30.5008 2.20405 30.0028 2.20405C29.4668 2.1617 28.9787 2.50361 28.8524 3.00915L27.6367 2.765C27.8095 1.85692 28.7767 1.20918 29.9684 1.20918C31.3161 1.20918 32.1518 1.87678 32.1518 2.95896V5.79404H30.9946V5.30001H30.9774C30.5849 5.72713 30.0091 5.95402 29.4193 5.91429C28.3999 5.91429 27.6915 5.37634 27.6915 4.57856C27.6915 3.78026 28.272 3.32282 29.7231 3.12939ZM30.9257 3.5999H30.9085C30.7942 3.76039 30.5629 3.85397 29.9235 3.96062C29.1672 4.09759 28.8874 4.24136 28.8874 4.50171C28.8874 4.76206 29.1118 4.8891 29.5988 4.8891C30.3416 4.8891 30.9153 4.55503 30.9153 4.13105L30.9257 3.5999Z" fill="black"/>
<path d="M34.4833 5.54333L32.3516 1.33907H33.7719L35.1708 4.251H35.1916L36.5733 1.33907H38.0004L34.808 7.68363H33.3882L34.4833 5.54333Z" fill="black"/>
</g>
<defs>
<clipPath id="clip0_60_607">
<rect width="38" height="12.5469" fill="white"/>
</clipPath>
</defs>
</svg>
