<svg width="135" height="94" viewBox="0 0 135 94" fill="none" xmlns="http://www.w3.org/2000/svg">
<path d="M82.8527 21.8182C85.7541 20.3932 87.1919 20.5802 87.2242 22.0246C87.263 23.9009 86.9856 26.396 86.7857 28.2014C85.7089 38.0139 83.91 46.0322 83.7746 56.1071C88.5136 43.8387 92.4853 35.3118 97.6047 24.8099C99.2296 21.4636 100.268 22.0891 101.602 21.4958C106.799 19.1812 106.993 20.5996 106.315 23.4302C103.794 33.914 97.3402 66.9229 96.354 72.0056C96.0701 73.4762 94.4713 72.8528 94.0585 72.2777C92.2081 69.718 90.1191 69.678 90.3511 67.9759C91.5118 59.5017 95.6897 38.2403 96.7794 33.2304C91.2279 44.6117 85.4703 58.8396 82.5108 66.9069C81.8854 68.62 80.7441 68.4943 80.035 67.2409C79.0356 65.4801 77.0949 64.5812 76.7724 62.5005C75.7602 55.8854 77.9331 43.2765 78.236 35.2995C75.2122 44.0134 70.1379 60.9312 67.9135 68.5748C66.998 71.7374 63.9417 71.2215 64.7541 68.139C68.1325 55.3115 75.4121 32.6244 78.5584 24.4682C79.3002 22.5467 81.2408 22.6112 82.8527 21.8182Z" fill="#4F5665"/>
<path d="M64.4255 20.245C63.4456 20.0065 60.6021 21.541 58.8548 21.844C58.3003 21.9407 57.7716 22.5274 57.5846 22.9466C54.7863 29.3749 52.2782 35.5026 50.1054 41.0849C47.3264 41.5594 44.077 42.1842 40.4405 43.0011C43.0453 36.3195 45.676 29.7294 48.2421 23.3914C49.5057 20.2707 46.1789 19.9742 44.8893 23.1335C43.2128 27.2407 40.0729 34.9359 36.5976 43.9051C34.0443 44.5311 31.3364 45.2468 28.5059 46.0644C26.449 46.6582 26.3653 47.2062 27.2551 48.4397C27.7451 49.1265 28.7574 49.0573 29.2215 49.5467C30.4208 50.815 31.1494 52.332 33.2963 52.5616C31.3814 57.6842 29.4665 62.9668 27.7321 68.0532C26.6425 71.246 29.7437 71.8991 30.9366 68.5205C32.858 63.0743 34.8825 57.5622 36.9651 52.0664C38.6995 51.6633 42.8968 50.7593 46.7718 49.9185C43.6963 58.3481 41.6717 64.7499 40.9045 67.8661C40.7627 68.4657 41.0012 68.7984 41.1302 69.0428C42.1682 70.5534 43.1547 70.6153 44.4894 72.4831C44.8505 72.9925 46.0627 73.2672 46.4753 72.0131C49.3251 63.4049 52.2588 55.328 54.9925 48.0873C56.1272 47.8391 58.1711 47.3459 59.4219 45.4793C61.6463 42.1664 62.2846 42.8383 62.8199 41.8312C63.4904 40.5669 63.0454 39.3798 60.6729 39.6731C60.6729 39.6731 59.7766 39.7369 58.1196 39.9258C60.7501 33.1527 63.0519 27.4078 64.709 23.03C65.2766 21.5475 65.3476 20.4642 64.4255 20.245Z" fill="#4F5665"/>
<path d="M60.544 64.1753C61.1565 65.7234 63.0715 65.2546 62.3429 63.3862C61.6013 61.4827 59.7574 55.7528 59.2737 53.9068C58.6161 51.4194 61.4659 52.0996 60.0217 53.7258C58.7838 55.1242 57.9584 55.6845 55.6696 58.3435C53.4581 60.9103 54.0577 64.2412 56.424 64.9769C59.0932 65.8072 61.4467 62.8659 62.9038 60.7079C64.3158 58.6183 62.9488 57.3926 61.524 58.628C60.6084 59.4223 59.551 60.6421 58.4806 61.2998C57.6102 61.8291 56.9267 61.2605 58.0874 59.6628C59.4349 57.813 60.9436 56.263 62.0655 54.515C64.3544 50.9527 59.8282 48.8992 57.881 51.2132C56.8364 52.4467 57.1008 53.6576 57.3845 54.6968C57.8424 56.3616 59.5446 61.6757 60.544 64.1753Z" fill="#4F5665"/>
</svg>
