<svg width="102" height="59" viewBox="0 0 102 59" fill="none" xmlns="http://www.w3.org/2000/svg">
<path d="M101.927 48.0492V45.5683H98.8464V41.7114L98.7427 41.7433L95.8491 42.6286L95.7921 42.646V45.5683H91.2249V43.9405C91.2249 43.1825 91.3945 42.6023 91.7285 42.2155C92.0602 41.8332 92.5348 41.6389 93.1398 41.6389C93.575 41.6389 94.0254 41.7414 94.4787 41.9436L94.5923 41.9942V39.3815L94.5389 39.3619C94.116 39.2099 93.5407 39.1333 92.8278 39.1333C91.9292 39.1333 91.1127 39.3288 90.4007 39.7164C89.6882 40.1044 89.1277 40.6584 88.7352 41.3629C88.3439 42.0666 88.1454 42.8792 88.1454 43.7784V45.5683H86.0002V48.0492H88.1454V58.5005H91.2249V48.0492H95.7921V54.6909C95.7921 57.4262 97.0823 58.8125 99.6268 58.8125C100.045 58.8125 100.485 58.7633 100.934 58.6673C101.392 58.5689 101.703 58.4705 101.887 58.3654L101.927 58.3415V55.8376L101.802 55.9205C101.635 56.0321 101.427 56.123 101.183 56.1906C100.938 56.2595 100.733 56.2941 100.574 56.2941C99.9782 56.2941 99.5373 56.1334 99.2635 55.8165C98.9868 55.4967 98.8464 54.9372 98.8464 54.1547V48.0492H101.927ZM79.123 56.2943C78.0052 56.2943 77.1241 55.9237 76.503 55.1936C75.8782 54.4598 75.5616 53.4137 75.5616 52.0845C75.5616 50.7133 75.8782 49.64 76.5033 48.8932C77.1247 48.1514 77.9976 47.7749 79.098 47.7749C80.1658 47.7749 81.0157 48.1345 81.6245 48.8443C82.2366 49.5576 82.547 50.6224 82.547 52.0096C82.547 53.414 82.255 54.4927 81.6791 55.2142C81.1073 55.9305 80.2475 56.2943 79.123 56.2943ZM79.2602 45.2567C77.1276 45.2567 75.4338 45.8815 74.2263 47.114C73.0195 48.3465 72.4075 50.0521 72.4075 52.184C72.4075 54.2087 73.0048 55.8374 74.183 57.0239C75.3612 58.2109 76.9646 58.8122 78.9482 58.8122C81.0154 58.8122 82.6754 58.1787 83.8826 56.9292C85.0896 55.6809 85.7011 53.9916 85.7011 51.9095C85.7011 49.8531 85.1273 48.2123 83.995 47.0336C82.8622 45.8544 81.2689 45.2567 79.2602 45.2567ZM67.4423 45.2567C65.9917 45.2567 64.7919 45.6277 63.8752 46.3593C62.9531 47.0951 62.4853 48.0604 62.4853 49.2283C62.4853 49.8354 62.5863 50.3748 62.785 50.8321C62.985 51.2911 63.2944 51.695 63.7053 52.0341C64.1133 52.3705 64.7427 52.7229 65.5772 53.0813C66.2784 53.3699 66.8016 53.6142 67.1339 53.8066C67.4586 53.9951 67.6893 54.1848 67.8194 54.3693C67.9458 54.55 68.0101 54.7971 68.0101 55.1025C68.0101 55.9712 67.3595 56.3939 66.0207 56.3939C65.5241 56.3939 64.9577 56.2903 64.3371 56.0858C63.7162 55.8816 63.1361 55.5881 62.6131 55.2116L62.4853 55.12V58.0848L62.5322 58.1066C62.9681 58.3077 63.5173 58.4773 64.1648 58.6109C64.8111 58.7444 65.3983 58.8125 65.9084 58.8125C67.4825 58.8125 68.7501 58.4396 69.6749 57.7037C70.6058 56.9628 71.0776 55.9748 71.0776 54.7662C71.0776 53.8946 70.8236 53.147 70.323 52.5442C69.8259 51.9461 68.9631 51.3972 67.7595 50.9119C66.8007 50.5271 66.1865 50.2076 65.9332 49.9625C65.6889 49.7256 65.5649 49.3906 65.5649 48.9663C65.5649 48.5902 65.7179 48.289 66.0323 48.0449C66.3491 47.7996 66.7898 47.6749 67.3428 47.6749C67.8559 47.6749 68.381 47.7559 68.9029 47.9147C69.4247 48.0735 69.8829 48.2862 70.2655 48.5465L70.3912 48.6325V45.8201L70.3429 45.7993C69.99 45.648 69.5247 45.5185 68.9595 45.4134C68.3966 45.3094 67.8861 45.2567 67.4423 45.2567ZM54.457 56.2943C53.3396 56.2943 52.4581 55.9237 51.8372 55.1936C51.2122 54.4598 50.8961 53.414 50.8961 52.0845C50.8961 50.7133 51.2125 49.64 51.8378 48.8932C52.4587 48.1514 53.3314 47.7749 54.4323 47.7749C55.4998 47.7749 56.3497 48.1345 56.9587 48.8443C57.5707 49.5576 57.8812 50.6224 57.8812 52.0096C57.8812 53.414 57.589 54.4927 57.0131 55.2142C56.4413 55.9305 55.5818 56.2943 54.457 56.2943ZM54.5945 45.2567C52.4615 45.2567 50.7676 45.8815 49.5607 47.114C48.3538 48.3465 47.7415 50.0521 47.7415 52.184C47.7415 54.2096 48.3392 55.8374 49.5173 57.0239C50.6955 58.2109 52.2987 58.8122 54.2825 58.8122C56.3492 58.8122 58.0098 58.1787 59.2169 56.9292C60.4236 55.6809 61.0354 53.9916 61.0354 51.9095C61.0354 49.8531 60.4615 48.2123 59.329 47.0336C58.1959 45.8544 56.6029 45.2567 54.5945 45.2567ZM43.0668 47.8078V45.5683H40.0247V58.5002H43.0668V51.8851C43.0668 50.7601 43.3218 49.8361 43.825 49.1381C44.3219 48.4485 44.984 48.099 45.7924 48.099C46.0663 48.099 46.3739 48.1442 46.707 48.2335C47.0367 48.3224 47.2756 48.4188 47.4165 48.5203L47.5442 48.6129V45.5461L47.4949 45.525C47.2116 45.4045 46.8109 45.3438 46.3038 45.3438C45.5394 45.3438 44.8553 45.5894 44.2693 46.073C43.755 46.4981 43.3832 47.081 43.099 47.8078H43.0668ZM34.5771 45.2567C33.1817 45.2567 31.9368 45.556 30.8779 46.1459C29.8169 46.7371 28.9964 47.5813 28.4381 48.6547C27.8824 49.7256 27.6003 50.9764 27.6003 52.3712C27.6003 53.593 27.8739 54.7144 28.4146 55.7025C28.9556 56.6924 29.7215 57.4668 30.6909 58.0039C31.6589 58.5404 32.7777 58.8125 34.0165 58.8125C35.4621 58.8125 36.6964 58.5233 37.686 57.9535L37.726 57.9304V55.1436L37.5982 55.2369C37.1499 55.5633 36.6489 55.824 36.1099 56.0118C35.5723 56.1994 35.082 56.2943 34.6524 56.2943C33.4587 56.2943 32.5005 55.9207 31.8049 55.1845C31.1078 54.4471 30.7544 53.4119 30.7544 52.109C30.7544 50.798 31.123 49.7361 31.8495 48.9525C32.5736 48.1713 33.5336 47.775 34.7025 47.775C35.7024 47.775 36.6768 48.1136 37.5985 48.7823L37.726 48.8749V45.9384L37.6849 45.9152C37.3379 45.7211 36.8649 45.5608 36.2774 45.4392C35.6927 45.3179 35.1208 45.2567 34.5771 45.2567ZM25.5051 45.5683H22.4631V58.5002H25.5051V45.5683ZM24.0152 40.0593C23.5145 40.0593 23.0778 40.2297 22.7191 40.5674C22.3589 40.9062 22.176 41.3326 22.176 41.8358C22.176 42.3311 22.3567 42.7497 22.7133 43.0795C23.0678 43.4082 23.5058 43.5748 24.0152 43.5748C24.5243 43.5748 24.9641 43.4082 25.3228 43.08C25.6839 42.7497 25.8669 42.3311 25.8669 41.8358C25.8669 41.3502 25.6889 40.928 25.3376 40.581C24.9869 40.2348 24.5419 40.0593 24.0152 40.0593ZM16.4252 44.6142V58.5001H19.5297V40.4553H15.2331L9.7716 53.8584L4.47164 40.4553H0V58.5001H2.91736V44.6129H3.01766L8.61424 58.5001H10.8159L16.3251 44.6142H16.4252Z" fill="#4F5665"/>
<path d="M48.2077 14.3103H33.8975V0H48.2077V14.3103Z" fill="#4F5665"/>
<path d="M64.0079 14.3103H49.6978V0H64.0079V14.3103Z" fill="#4F5665"/>
<path d="M48.2074 30.1163H33.8975V15.806H48.2074V30.1163Z" fill="#4F5665"/>
<path d="M64.0079 30.1163H49.6978V15.806H64.0079V30.1163Z" fill="#4F5665"/>
</svg>
